<svg version="1.1" id="ryland-bed-svg" viewBox="0 0 130.45581 110.93182" width="100%" height="100%"
   xmlnsSvg="http://www.w3.org/2000/svg" xmlns="http://www.w3.org/2000/svg">

   <path id="path848" style="fill:#FFF"
      d="m 123.53919,24.619385 c -0.22022,0.323013 -0.20681,1.350735 -0.22328,1.643997 -0.0288,0.513287 0.32845,-0.103756 0.32845,0.14736 m 0.009,-0.729668 c 0.0304,0.152013 0.0608,0.304027 0.0912,0.456043 m 0.82088,-3.101091 c 0.049,0.273669 0.37899,1.978292 0.27363,2.189004 -0.0192,0.03846 -0.072,0.05275 -0.0912,0.09121 -0.0275,0.05507 0.0422,0.231463 0,0.273624 -0.0215,0.02151 -0.0697,-0.02148 -0.0912,0 -0.0728,0.0728 0.0478,0.360352 0,0.456044 -0.0651,0.130164 -0.18241,0.110535 -0.18241,0.273626 M 25.750035,0.04356927 c -2.30372,0.0581 -5.32103,0.0669 -7.35395,1.26460003 -2.61872,1.54286 -2.65534,4.85817 -2.86394,7.543659 -0.46101,5.9351297 1.61477,13.6747297 -0.18721,19.3145897 -3.205587,10.033 -12.6681166,18.02447 -15.02161657,28.31042 -1.09588,4.78949 0.81893997,9.55146 2.38709997,14.02292 3.74311,10.673025 9.6639296,19.699545 15.6850866,29.104175 3.02069,4.718057 6.78356,11.264637 13.19124,11.327077 6.17802,0.0603 13.66335,-3.24749 19.5633,-5.01782 10.49813,-3.15014 19.08175,-8.071917 28.83958,-12.818817 9.27338,-4.51114 19.05503,-8.31347 28.045845,-13.383679 5.24139,-2.955926 10.58307,-5.790936 15.60936,-9.108806 2.36405,-1.56078 5.08264,-3.20517 6.25422,-5.92402 1.31498,-3.05091 0.0397,-5.90206 -1.13507,-8.7302 -1.81715,-4.37515 -5.90523,-11.02546 -6.01159,-15.73186 -0.0609,-2.6932 1.47611,-5.75813 2.16535,-8.34523 0.84772,-3.18161 0.95964,-6.27274 1.25888,-9.525 0.17674,-1.92167 0.71676,-4.19153 0.0103,-6.05631 -0.74374,-1.96427 -2.79268,-2.55244 -4.15422,-3.95261 -1.38748,-1.42653 -1.95871,-3.3250997 -3.53219,-4.6453887 -3.73724,-3.13608 -7.48506,-2.04163 -11.78798,-2.84287 -2.46777,-0.45948 -4.72281,-1.96525 -7.143755,-2.67134 -3.11547,-0.90869 -6.56458,-0.90604 -9.78958,-0.86482 -2.65748,0.034 -4.71118,1.91307 -7.17762,2.04187 -3.32079,0.17341 -7.01358,-0.64614 -10.38119,-0.77528 -15.41567,-0.59116 -31.02688,-2.92470003 -46.47035,-2.53526003 M 105.12505,29.753918 c -3.33375,-0.24474 -6.718835,0.62071 -10.054175,0.77549 -10.03829,0.46514 -20.23533,1.31366 -30.1625,2.8956 -3.90737,0.62256 -7.76843,1.42557 -11.64167,2.22567 -1.79123,0.36989 -4.00076,1.17846 -5.82057,0.66517 -4.9104,-1.38483 -9.36995,-7.92057 -12.96485,-11.27099 -4.80007,-4.47357 -11.05455,-7.00934 -15.82643,-11.35512 -1.72451,-1.57083 -3.38012,-7.8426687 0.27011,-8.4296487 1.41167,-0.22701 2.82767,1.09794 3.91466,1.81547 2.57704,1.701019 5.24007,3.7402987 8.20208,4.6866887 v -0.52917 c -3.67586,-2.2304397 -8.55609,-7.6233787 -12.96457,-7.6729087 4.46827,-3.14989003 14.61822,-1.4061 19.86755,-1.11289 11.22363,0.62693 23.64079,-0.17137 34.63661,2.3159 5.43824,1.23015 11.46598,4.151409 16.40417,6.7057787 3.04429,1.57466 6.35926,3.39632 9.525,4.66685 1.807365,0.72549 4.118245,0.82815 5.553865,2.27224 2.53762,2.55244 2.22303,8.29204 1.06072,11.34587 m 14.55208,-17.46251 c -4.66725,-0.37197 -9.34508,-0.27151 -14.02291,-0.2278 -2.95699,0.0275 -5.695955,-0.73308 -8.466675,-1.70487 -3.09007,-1.0837897 -6.34947,-2.0996797 -9.25513,-3.6256887 -0.82947,-0.43555 -2.56646,-1.44407 -2.17699,-2.63512 0.79084,-2.41768 7.22101,-1.37906 9.05087,-1.31736 4.20846,0.14187 7.413095,2.35308 11.377085,3.27412 5.40465,1.25579 11.84566,-1.26527 13.49375,6.2367187 M 94.806295,4.0893393 c 0.94059,1.99913 5.866875,3.4323 7.937505,3.175 -2.60906,-1.56483 -4.906965,-2.71233 -7.937505,-3.175 m 16.933335,11.9062387 -11.37708,-0.53922 -6.614585,-3.25914 -16.40417,-7.0495487 c 4.53549,-1.17573 5.8158,1.35273 9.52685,2.895859 4.50242,1.87216 9.52659,3.7890397 14.285655,4.8770597 3.85154,0.88054 7.31123,0.38762 10.58333,3.07499 m -6.87916,-7.4083297 -0.26459,0.79375 c 2.20107,0.28818 7.40146,0.13658 9.26042,-1.05834 -3.04483,-0.756569 -5.99228,-0.598799 -8.99583,0.26459 m -85.460415,1.32291 c 1.72343,1.0272797 3.66738,1.1964997 5.55624,0.5291697 -1.82695,-0.7350397 -3.62271,-0.8574897 -5.55624,-0.5291697 M 124.17505,14.937248 v 0.26458 l -11.37708,0.52917 -3.43959,-2.11667 c 4.44844,-0.93292 10.7659,-0.71411 14.81667,1.32292 M 19.135465,13.614328 v 0.26458 l 2.11666,1.05834 -2.11666,-1.32292 m -2.11666,0.26458 c 1.06521,0.96468 2.7657,1.89469 3.31297,3.27713 1.09108,2.75643 -2.04139,9.0559 -2.51922,12.06871 h -0.79375 c -0.29783,-4.8477 -1.00175,-10.56958 0,-15.34584 m 107.156245,1.85209 c 1.81928,3.44673 1.05913,7.0948 1.05833,10.84792 l -12.43541,1.32291 c 0.5715,-4.02008 1.74387,-7.32499 0.52916,-11.37708 l 10.84792,-0.79375 m -12.17083,0.79375 c 1.41605,5.40517 1.45071,11.59695 -5.02709,12.43542 0.88821,-4.26615 0.13177,-8.48731 -2.64583,-11.90626 l 7.67292,-0.52916 m -93.662505,0.26458 0.26459,0.26458 -0.26459,-0.26458 m 3.96874,0.79375 c 6.06319,3.65257 11.20828,8.08567 16.13958,13.12492 1.58618,1.62084 4.20079,3.11918 5.16811,5.20965 1.08347,2.3413 0.38814,6.11478 0.38814,8.65293 l -28.839584,4.23334 3.542764,-15.61042 3.60099,-15.61042 m 25.66459,17.4625 c 1.61342,-1.75339 1.63221,-5.37739 1.82721,-7.67053 0.0476,-0.55775 0.31221,-2.36379 -0.56065,-2.50137 -0.88265,-0.13944 -1.13798,1.67031 -1.23243,2.21562 -0.45773,2.63948 -0.66702,5.34141 -0.0341,7.95628 m -6.87917,-9.525 4.7625,7.14375 c -0.28998,-2.9636 -1.71291,-6.2185 -4.7625,-7.14375 m -14.02292,2.91042 -1.05833,1.05833 h -0.52917 l -0.52916,-2.91041 c -1.85579,2.21218 1.04722,5.07788 2.11666,1.85208 m 97.631265,-0.79375 -3.96875,14.02292 c -1.29223,-2.90725 -0.96864,-6.65084 -1.08612,-9.779 -0.0365,-0.97711 -0.42545,-2.51408 0.28681,-3.33296 0.96097,-1.10464 3.44726,-0.87948 4.76806,-0.91096 m -6.61459,0.52917 c 0.77999,8.15234 0.8001,16.27769 -0.79375,24.34167 -5.0292,-1.86981 -9.71788,-4.80378 -14.55208,-7.12709 -3.504415,-1.68434 -7.431095,-2.83845 -10.736005,-4.9067 -1.55522,-0.9734 -4.59502,-5.63456 -3.46975,-7.5221 0.96679,-1.6219 5.93646,-1.02023 7.59117,-1.13427 7.451725,-0.51356 14.622995,-2.59186 21.960415,-3.65151 m -65.087505,5.02708 6.08542,-3.70417 c -2.38258,0.0296 -4.63815,1.94046 -6.08542,3.70417 m -24.87083,-3.175 c 1.06944,4.44606 4.54316,0.76279 2.38125,0 l -0.26459,1.32292 -2.11666,-1.32292 m 23.01875,3.43958 c 1.50151,-0.84905 2.43178,-1.88648 3.175,-3.43958 -1.65788,0.71755 -2.54662,1.75789 -3.175,3.43958 m -10.05417,-3.175 5.29166,4.7625 -5.29166,-4.7625 m -9.26042,1.5875 0.26458,0.26459 -0.26458,-0.26459 m 55.29792,0.52917 -1.5875,1.05833 v -1.05833 h 1.5875 m 20.108345,0.26458 v 0.26459 l 1.05833,0.79375 -1.05833,0.26458 v 0.26458 l 4.7625,2.64584 c -0.27041,-2.83528 -1.89283,-4.35849 -4.7625,-4.23334 m -23.283345,0 -1.5875,7.67292 -32.54375,4.23333 c 0.42201,-1.84732 0.65193,-5.3467 2.00977,-6.72703 1.73779,-1.76715 6.48838,-2.01136 8.83815,-2.38707 7.67556,-1.22687 15.51543,-2.39025 23.28333,-2.79215 m 2.38125,1.85209 -0.52916,0.79375 0.52916,-0.79375 m 24.870845,0.52916 -1.05834,-0.26458 1.05834,0.26458 m -16.933345,1.5875 c 2.50217,5.10038 6.340485,-2.15053 1.70974,-0.68871 -0.5842,0.18442 -1.1467,0.45006 -1.70974,0.68871 m 3.175,-1.05833 -0.26458,0.26458 0.26458,-0.26458 m -25.4,0.79375 c -1.60656,5.94553 5.70798,1.58905 4.98634,0.25426 -0.69691,-0.94165 -3.91319,-0.19579 -4.98634,-0.25426 m 25.94928,0.0279 -1.34303,1.82422 0.17657,-1.97144 0.88413,0.0139 m -33.86903,1.95752 1.85208,-0.52916 v 1.32291 l -1.5875,-0.52916 c 1.1393,1.61766 2.71939,1.78117 4.23333,0.52916 l 2.38125,-2.38125 c -2.26007,-0.26749 -5.04825,0.15346 -6.87916,1.5875 m -18.78542,-1.5875 c 1.79176,1.02817 3.24935,1.29514 5.29167,1.05834 l -3.43959,12.96458 h -0.52917 c -1.52849,-4.14576 -1.58141,-9.63613 -1.32291,-14.02292 m 25.13542,0 -1.85209,1.85209 v -1.5875 l 1.85209,-0.26459 m 6.49979,0.32198 -1.73729,1.53011 0.26458,-1.5875 1.23122,-0.0231 m 20.7292,-0.24149 -0.26458,0.26459 0.26458,-0.26459 m 1.77304,-0.79005 c -2.32104,3.40574 4.692435,4.36261 4.790265,1.54071 m -31.169555,-0.48607 0.72446,1.12762 0.78185,0.48297 -1.05559,0.61055 m 22.56803,-2.22114 v 0.79375 l -0.52917,-0.79375 0.6163,-0.43566 m -66.42559,1.05213 c -2.79109,0.98373 0.51277,3.26338 2.45454,2.46037 2.35929,-0.97552 -0.91175,-3.00382 -2.45454,-2.46037 m 6.54262,0.70644 c 2.64742,4.39473 7.07099,-1.58168 1.8759,-0.62177 -0.65749,0.12145 -1.26048,0.37068 -1.8759,0.62177 m -5.29167,-0.26458 -0.52916,1.5875 -1.52811,-0.7143 2.05727,-0.8732 m 69.641205,-1.23199 -0.158345,1.46432 c 0,0 -0.76012,-0.37455 -0.87067,-0.73877 -0.10714,-0.35295 0.30345,-1.06415 0.30345,-1.06415 m -83.20313,1.57059 -1.85209,2.91042 1.85209,-2.91042 m 23.72623,0.32208 v 0.22147 l -0.70749,0.2502 v -0.79375 l 0.62124,0.27177 m 73.462105,-0.27177 c -0.0249,1.54464 0.41937,2.43628 1.5875,3.43958 l -0.26458,1.05834 c 0.88794,-0.24686 1.25942,-0.18997 1.85208,0.52916 0.89641,-2.59582 -0.53604,-4.59555 -3.175,-5.02708 m -81.756255,0.26458 0.52916,0.79375 -1.05833,0.26459 0.52917,-1.05834 m 6.61458,0 v 1.05834 l -1.85208,-0.76058 1.85208,-0.29776 m 31.22084,0.79375 -2.64584,1.5875 v 0.26459 c 1.20677,-0.32385 2.04523,-0.72338 2.64584,-1.85209 m 33.908435,-1.3705 c 0,0 -0.90284,1.04194 -1.41517,1.04883 -0.57174,0.008 -1.08097,10e-4 -1.22327,-0.24555 -0.0669,-0.11615 0.38114,-1.46434 0.38114,-1.46434 m -88.271972,2.29616 -3.4395796,4.49791 3.4395796,-4.49791 m 76.464587,0 -0.26458,1.05833 h -0.26459 v -1.05833 h 0.52917 m 26.722925,1.32291 -1.05834,-0.79375 1.05834,0.79375 m -102.393762,2.64584 -1.85208,2.38125 -0.26458,-0.26459 2.11666,-2.11666 m 58.208337,0 -1.05834,1.05833 v -1.05833 h 1.05834 m 20.6375,0.52916 -0.26458,1.5875 h -0.26459 l 0.52917,-1.5875 m -29.19228,0.97023 -0.0884,0.17621 0.0884,-0.17621 m -32.72023,3.26311 -1.05833,0.79375 0.26458,-0.79375 h 0.79375 m 37.57084,0 -0.79375,1.32292 0.79375,-1.32292 m -30.69167,0.52917 -0.52917,0.52916 0.52917,-0.52916 m 41.275,0 -0.52916,0.79375 0.52916,-0.79375 m -52.12292,0.26458 -0.26458,0.26458 0.26458,-0.26458 m 75.406265,0 -1.05833,1.5875 0.52916,-1.5875 h 0.52917 m -65.352095,0.26458 -2.91042,2.38125 2.91042,-2.38125 m 7.40833,0 -1.05833,1.85209 1.05833,-1.85209 m -20.10833,0.52917 -0.26458,0.26458 0.26458,-0.26458 m -19.8437466,1.05833 -1.5875,4.23334 h -0.26458 l 1.85208,-4.23334 m 107.1562616,0.26459 -0.79375,5.02708 c -0.93345,-1.56713 -0.14844,-3.38349 0.26458,-5.02708 h 0.52917 m -28.310425,0.26458 -0.26459,0.26458 0.26459,-0.26458 m 7.9375,0 -0.26458,1.85208 h -0.26459 l 0.52917,-1.85208 m -8.73125,0.26458 -0.52917,0.52917 0.52917,-0.52917 m 18.520835,0 -0.52916,0.79375 0.52916,-0.79375 m -18.079775,0.44106 -0.0884,0.17622 0.0884,-0.17622 m -45.42023,0.61728 -1.32292,1.32291 1.32292,-1.32291 m 10.23064,0.17647 -0.0884,0.17622 0.0884,-0.17622 m 35.01311,-0.17647 -0.79375,2.11666 h -0.26458 l 1.05833,-2.11666 m -11.37708,0.26458 -4.7625,7.14375 c 1.8661,0.21432 5.15355,-0.61224 6.58177,0.83715 1.03558,1.05092 0.61807,2.87231 0.58156,4.18994 -0.0905,3.25199 0.52519,6.3074 0.72337,9.525 0.0632,1.02738 0.36909,3.19193 -0.74771,3.79677 -1.30863,0.708546 -1.97327,-0.97102 -1.96718,-1.96321 0.0153,-2.44052 0.79428,-7.47845 -3.57188,-5.95471 -3.45784,1.20676 -4.63232,6.21665 -6.12113,9.143196 -0.14526,0.28575 -1.89098,3.204639 -2.32622,1.999989 -0.51064,-1.413669 1.88304,-4.906955 2.4593,-6.228285 2.11905,-4.8604 4.15237,-9.67581 4.12353,-15.08125 l -0.79375,0.52916 5.82084,-7.9375 m 4.23333,0.79375 -0.26458,0.26458 0.26458,-0.26458 m 6.08542,1.32292 -0.26459,1.32291 h -0.26458 l 0.52917,-1.32291 m 10.05417,0 c -0.013,6.78418 -0.29316,13.09873 0.79375,19.84375 -3.10727,-1.02023 -3.95976,-8.72331 -7.56286,-8.11768 -2.70615,0.45482 -0.29633,6.20236 -0.56065,7.82743 -0.16457,1.01124 -1.22952,2.48576 -2.44104,2.08651 -1.19909,-0.39529 -0.81889,-2.98133 -0.78978,-3.91293 0.1098,-3.51181 -0.26141,-6.82334 -0.49054,-10.31848 -0.0675,-1.02923 -0.33338,-3.02736 0.90461,-3.51473 2.61382,-1.02896 5.26362,6.89505 7.46019,5.16255 2.72785,-2.15132 -1.23957,-7.51787 2.68632,-9.05642 m 35.454165,0 0.26459,1.05833 -0.26459,-1.05833 m -124.7069416,0.44106 -0.0882,0.17621 0.0882,-0.17621 m 22.5777666,-0.17648 -0.52916,0.52917 0.52916,-0.52917 m -18.5208266,0.26458 -1.32292,2.38126 h -0.26458 l 1.5875,-2.38126 m 88.8999966,0 -0.26458,3.17501 h -0.26458 l 0.52916,-3.17501 m 3.43959,16.40417 0.26458,-15.61042 c 1.935695,-0.10636 4.006065,-0.43735 5.818455,0.42678 4.23281,2.01771 6.24972,8.12377 2.96201,11.89434 -2.18122,2.5019 -5.88195,3.20173 -9.045045,3.2893 m -75.14167,14.816665 c -4.33686,-5.12101 0.53472,-11.140275 -1.90971,-16.924595 -2.57095,-6.08409 -6.78426,-0.7202 -7.33878,3.16627 -0.28197,1.97617 -0.748367,3.91398 -1.334847,5.820826 h -0.52916 c -1.75819,-4.131196 1.25513,-9.678186 1.53304,-14.022916 0.115277,-1.80207 -0.50953,-4.09469 0.572137,-5.68457 1.8347,-2.69664 7.97676,-3.31126 10.27441,-1.06071 2.88527,2.82628 -2.0193,4.83526 -2.06243,7.54274 -0.0341,2.14683 1.73619,4.3688 1.98199,6.61088 0.53499,4.88024 -0.34157,9.762065 -1.18665,14.552075 m 16.13958,-30.162495 -1.5875,1.85208 1.05833,-1.85208 h 0.52917 m 33.3375,0 -0.52917,0.52917 0.52917,-0.52917 m 7.9375,0 -0.26458,0.26458 0.26458,-0.26458 m -0.52917,1.05833 -0.52916,0.79375 0.52916,-0.79375 m 40.745845,0 -3.70417,12.96459 h -0.26458 c 0.69294,-4.16719 1.71265,-9.35699 3.96875,-12.96459 m -67.468755,0.26459 -1.85209,3.70416 2.91042,-1.5875 -2.59079,1.91617 0.76162,1.79158 2.8875,-1.85566 -2.8192,0.91287 -1.9433,-1.70662 -1.32291,0.26458 3.96875,-3.43958 m 74.612505,0 0.79375,5.02708 H 128.673 l -0.52917,-5.02708 m -87.312515,0.52916 v 0.52917 h -0.52916 v -0.52917 h 0.52916 m 38.36459,0.26459 -0.26458,0.26458 0.26458,-0.26458 m -72.8485966,0.44106 -0.0882,0.17621 0.0882,-0.17621 m 13.5639666,0.11641 c -3.01411,-0.37041 -5.56102,4.25953 -2.0344,4.72864 3.14742,0.41857 6.08329,-4.23095 2.0344,-4.72864 m 58.75546,-0.29289 -0.26458,0.26458 0.26458,-0.26458 m 43.920845,0 -1.5875,4.23333 1.5875,-4.23333 m -48.947925,0.26458 -0.26458,0.26459 0.26458,-0.26459 m -41.80417,0.26459 0.79375,0.52916 v 0.26459 l -1.05833,0.79375 0.26458,-1.5875 m 14.2875,0 -0.26458,0.26458 0.26458,-0.26458 m -39.9520766,0.26458 -1.32292,2.38125 h -0.26458 l 1.5875,-2.38125 m 38.0999966,1.05833 c -2.66462,5.72903 -5.77109,11.17389 -8.37301,16.93334 -1.04431,2.311926 -1.81292,5.069145 -4.59158,5.556245 0.4998,-3.825609 3.2131,-7.979305 2.30744,-11.905985 -0.98796,-4.2844 -6.96913,-5.64012 -4.68869,-10.5836 1.31022,2.03306 4.14814,8.09705 7.34034,6.99056 2.67573,-0.92763 3.5777,-5.74807 4.56591,-8.04889 l 3.43959,1.05833 m 21.69583,-0.79375 0.26459,0.26459 -0.26459,-0.26459 m -55.827077,0.26459 -0.2645796,0.26458 0.2645796,-0.26458 m 92.554692,0.51064 c -2.741085,1.14882 -1.38509,7.25329 2.40665,5.76051 3.81212,-1.50071 0.69189,-7.05908 -2.40665,-5.76051 m -23.498445,0.0185 v 3.70417 h -0.52917 l 0.52917,-3.70417 m -69.5854166,0.26459 -0.26458,0.26458 0.26458,-0.26458 m 1.3229196,0 -0.26458,0.26458 0.26458,-0.26458 m -1.5874996,0.52916 -0.52917,1.32292 h -0.26458 l 0.79375,-1.32292 m 42.0687466,1.32292 c -1.65682,4.3016 -3.87721,8.32485 -5.95815,12.43542 -0.69824,1.37927 -2.37094,3.771626 -1.75499,5.394315 0.9152,2.41036 5.95181,0.12595 7.44856,-0.516729 1.46632,-0.62944 2.81199,-1.50971 4.23333,-2.231756 -1.24063,8.286215 -8.78364,10.177985 -16.40417,9.260415 2.05793,-6.43705 4.48178,-13.074385 7.07231,-19.314585 1.05622,-2.54423 2.12064,-5.51735 5.36311,-5.02708 m 17.54955,-0.18574 c -2.59451,0.60114 -2.06825,4.93237 0.91149,4.3233 2.56117,-0.52335 1.94522,-4.98502 -0.91149,-4.3233 m -59.0891266,-0.0788 -0.26459,0.26458 0.26459,-0.26458 m 42.0687466,2.11666 -0.26459,1.05834 h -0.26458 l 0.52917,-1.05834 m -47.6250066,0.79375 -1.32291,2.11667 v -1.85208 l 1.32291,-0.26459 m 3.70417,0.52917 -2.11667,3.43958 2.11667,-3.43958 m 48.9479166,0.52917 -0.26458,0.26458 0.26458,-0.26458 m 40.39315,0.44106 -0.0884,0.17621 0.0884,-0.17621 m 24.165195,0.0881 -0.26459,0.26459 0.26459,-0.26459 m -109.272922,0.26459 -0.26459,0.26458 0.26459,-0.26458 m 72.231247,0.0881 c 0.20452,0 0.0423,0.13177 -0.0881,0.0884 l 0.0881,-0.0884 m 12.43542,0.17648 0.79375,1.32292 -0.79375,-1.32292 m 24.341665,0 c -0.14896,1.69545 -0.52916,2.84851 -1.85208,3.96875 l 1.85208,-3.96875 m 2.64584,0 -0.52917,0.79375 0.52917,-0.79375 m -112.006942,0.44106 -0.0882,0.17621 0.0882,-0.17621 m 100.894442,0.35269 -0.26459,0.26458 0.26459,-0.26458 m -82.550015,1.05833 c -0.7919,-0.0169 -1.14988,0.0143 -1.32292,-0.79375 l 1.32292,0.79375 m -18.520827,-0.52916 -0.52917,1.5875 h 0.52917 l -0.52917,2.38125 h -0.26458 l -0.26458,-1.5875 1.05833,-2.38125 m 42.068747,0 -0.52917,0.79375 0.52917,-0.79375 m -48.1541666,1.5875 -0.26458,0.26458 0.26458,-0.26458 m 1.5875,0 -0.26458,1.05833 h -0.26458 l 0.52916,-1.05833 m 19.0499966,1.05833 -0.26458,1.05833 h -0.26459 l 0.52917,-1.05833 m 87.577095,0 -1.05833,2.11667 1.05833,-2.11667 m 5.02708,0.26458 -1.05833,0.52917 0.26458,-0.79375 0.79375,0.26458 m -112.1833316,0 -0.26459,0.26459 0.26459,-0.26459 m 60.0604066,0.26459 -0.52916,0.52916 0.52916,-0.52916 m -60.3249966,0.26458 -0.26458,0.26458 0.26458,-0.26458 m 89.1645866,0.26458 -0.26458,0.26459 0.26458,-0.26459 m -80.433344,0.26459 v 1.05833 h -0.264576 l 0.264576,-1.05833 m -9.2604126,0.79375 -0.26458,0.26458 0.26458,-0.26458 m 92.3395866,0 -0.26458,0.79375 h -0.26458 v -0.79377 h 0.52916 m -89.6937466,0.79375 -0.26458,0.26458 0.26458,-0.26458 m -1.5875,1.32292 -0.26458,0.79375 h -0.26459 l 0.52917,-0.79375 m 79.9041666,1.05833 -1.85209,0.52917 v -0.26459 h 0.52917 v -0.26458 h -1.05833 2.38125 m 20.637505,-0.44106 c 0.20452,0 0.0423,0.13176 -0.0881,0.0884 l 0.0881,-0.0884 m -21.960425,0.17648 v 0.26458 h 0.79375 l -0.79375,-0.26458 m 10.84792,0 -0.26458,2.116656 h -0.26459 l 0.52917,-2.116656 m 14.022925,0 -1.85209,1.32291 v -0.26458 l 1.85209,-1.05833 m -7.14375,1.14643 0.0881,0.0884 c -0.13044,0.0434 -0.29263,-0.0884 -0.0881,-0.0884 m -0.52917,0.17648 v 0.26459 l -2.11667,1.058326 2.11667,-1.322916 m 5.55625,0 v 0.26459 l -1.05833,0.26458 1.05833,-0.52917 m -1.32292,0.52917 -0.26458,0.264576 0.26458,-0.264576 m -36.512505,0.529166 h 0.26458 v 1.05833 h -0.26458 v -1.05833 m 25.4,0 -0.26458,0.26458 0.26458,-0.26458 m -12.17083,0.26458 -1.5875,3.174999 h -0.26459 l 1.85209,-3.174999 m -63.23542,0.26458 -0.52917,2.381249 h -0.26458 l 0.79375,-2.381249 m 69.85,0.52917 c -0.46302,2.022999 -0.85804,4.053939 -2.38125,5.556249 l 1.85209,-5.556249 h 0.52916 m -75.67083,0.793749 -0.26459,0.26458 0.26459,-0.26458 m 15.87499,0 -0.79375,3.175 -0.79375,-0.26458 -0.52916,1.05833 h -0.26459 l 2.38125,-3.96875 m 40.48126,1.05833 -1.85209,5.02709 h -0.26458 l 2.11667,-5.02709 m 23.8125,0 -0.52917,0.79375 0.52917,-0.79375 m -14.55209,1.32292 h 1.05834 l -1.5875,3.175 h -0.26459 l 0.79375,-3.175 m -60.85415,0.52917 1.05832,1.5875 -1.05832,-1.5875 m 11.37707,0.52916 -1.85209,1.05834 v -0.26459 l 1.85209,-0.79375 m 1.5875,0.79375 -0.26459,0.26459 0.26459,-0.26459 m -3.70417,0.52917 -0.52917,0.52917 0.52917,-0.52917 m -9.08402,0.44106 -0.0882,0.17621 0.0882,-0.17621 m 53.00486,0.70538 c 0.20452,0 0.0423,0.13176 -0.0881,0.0884 l 0.0881,-0.0884 m -3.70417,0.44106 -0.52917,0.79375 0.52917,-0.79375 m -8.73125,0.79375 -1.05833,1.05833 0.52916,-1.05833 h 0.52917 m -21.43125,0.52917 -1.05834,1.05833 0.26459,-1.32292 0.79375,0.26459 m 29.63333,-0.26459 -0.26458,0.26459 0.26458,-0.26459 m 7.32023,0.17648 -0.0884,0.17621 0.0884,-0.17621 m -61.82439,0.35269 -0.529167,0.79375 0.529167,-0.79375 m 28.83958,0.26458 v 0.26459 l -2.11667,1.32291 0.79375,-1.32291 h -1.85208 l 3.175,-0.26459 m 32.80833,0 -0.79375,2.11667 h -0.26458 l 1.05833,-2.11667 m -23.01875,0.26459 -0.26458,0.26458 0.26458,-0.26458 m 20.90209,0.26458 -0.26459,0.26458 0.26459,-0.26458 m -0.26459,0.52917 -1.5875,3.70416 h -0.26458 l 1.85208,-3.70416 m -39.95208,0.79375 -2.11667,3.96875 h -0.26458 l 1.85208,-3.96875 h 0.52917 m -18.25625,1.05833 -0.26458,0.26458 0.26458,-0.26458 m 36.77708,0.26458 -0.52916,0.52917 0.52916,-0.52917 m -0.52916,1.05834 -1.85209,2.91042 1.85209,-2.91042 m 11.90625,0.52916 -0.26459,0.26459 0.26459,-0.26459 m -0.26459,0.52917 c -0.68209,2.46751 -1.38403,5.50811 -3.175,7.408337 l 3.175,-7.408337 m -32.01458,0.79375 -0.52917,0.52917 0.52917,-0.52917 m 41.45148,0.44106 -0.0884,0.17621 0.0884,-0.17621 m -54.15147,0.3527 -0.26458,0.26458 0.26458,-0.26458 m 23.81249,0.26458 -0.26459,0.79375 h -0.26458 l 0.52917,-0.79375 m -17.19792,0.79375 -0.26458,0.26459 0.26458,-0.26459 m -0.26458,0.52917 -1.05833,1.32292 1.05833,-1.32292 m 38.89375,2.645827 v 0.26459 l -1.05833,0.26458 v -0.26458 l 1.05833,-0.26459 m -12.17083,2.11667 -0.26459,0.26458 0.26459,-0.26458 m -25.66459,0.26458 v 1.32293 h -0.79375 -0.26458 l 1.05833,-1.32293 m 27.51667,1.32293 -0.26458,0.26458 0.26458,-0.26458 m -13.49375,2.64583 0.52916,1.05834 -1.32291,0.52916 z m 6.75219,-71.247362 c -0.85573,-0.4715 -4.66419,-3.6607 -5.17223,-5.04425" />
</svg>